<svg id="Capa_1" enable-background="new 0 0 512 512" height="512" viewBox="0 0 512 512" width="512" xmlns="http://www.w3.org/2000/svg"><g><g><path d="m72.947 446.695c-14.094-19.08-40.213-2.63-28.18 18.538 12.897 16.693 38.506.167 28.18-18.538z" fill="#ffbf48"/><g fill="#ff8984"><path d="m504.599 8.1c-15.912-13.924-36.392 8.689-66.131 34.05 10.071 3.947 17.51 12.377 20.27 22.749 14.974-15.63 45.707-42.772 46.656-55.927z"/><path d="m196.54 401.393c11.955-11.457 12.082-25.14.132-37.243-18.57-20.814-39.178-42.257-64.444-54.571-17.008-6.069-45.233 31.407-55.282 43.787-13.361 15.08-11.021 32.419 2.163 47.288 9.469 12.359 19.838 24.233 30.814 35.291 13.169 15.45 29.198 17.163 44.982 3.626 15.148-11.177 29.154-24.023 41.635-38.178zm-94.076-19.153c-5.94-.119-14.66-6.145-13.825-12.022 2.45 5.723 7.612 11.244 14.549 11.039 13.27.266 19.899-17.442 9.629-25.888-.346-.28-.115-.888.332-.873 16.796 2.09 28.913-17.109 12.218-21.122-.908-.389-4.395 1.934-3.331-.119 17.02-4.611 17.049 21.997-6.709 22.45 8.007 11.103 1.351 26.951-12.863 26.535zm7.52 17.137c-.78.062-3.972.091-2.285-1.057 13.529.835 27.187-5.326 37.383-14.629-19.273-3.649-16.409-26.461 1.963-28.025 27.75 4.82-11.331 47.298-37.061 43.711zm10.61 18.442c-.615.144-.844-.878-.186-.989 6.406-1.023 12.073-4.595 16.742-8.852.31 4.022-12.287 9.246-16.556 9.841zm62.347-23.54c-.162.381-.735.471-.948-.053-7.195-17.536-14.672-9.424-23.865.77 26.624 9.748-6.34 44.514-22.095 25.238-.392-.477.354-1.128.785-.614 6.621 8.045 19.572 6.021 25.946-2.008 7.475-7.38 4.798-22.283-6.692-20.612-.471.157-.88-.477-.507-.835 10.029-10.63 19.309-22.749 27.376-1.886z"/><path d="m147.11 380.657c10.47-8.939 12.961-30.33-6.91-22.111-12.936 6.402-6.993 27.054 6.91 22.111z"/></g><path d="m456.999 63.234c-2.566-9.472-10.165-17.207-19.616-20.072-5.832 5.395-12.527 11.755-18.922 17.905 9.947 3.929 18.017 11.512 22.278 21.282 5.866-5.662 11.826-11.409 17.592-17.05z" fill="#bfc7d8"/><path d="m314.232 201.494c-5.373-7.121-21.527-15.42-24.829-1.891-2.724 9.528 10.375 21.781 19.337 20.957 10.851-.797 12.142-12.67 5.492-19.066z" fill="#939baa"/><path d="m438.979 81.309c-4.007-9.137-12.01-16.137-21.489-19.29-119.519 117.529-224.24 91.857-334.587 248.077-55.973 82.553-109.703 123.96-51.39 182.04 11.914 10.195 27.567 16.515 42.536 16.401 31.41 13.053 225.019-165.384 253.94-206.596 40.135-50.213 33.658-98.51 43.56-145.072 2.525-9.667 33.051-39.926 68.286-73.626zm-370.662 389.042c-20.878 12.356-38.272-17.559-19.675-30.999 20.424-9.936 38.562 17.301 19.675 30.999zm128.972-68.302c-12.492 14.185-26.551 27.081-41.784 38.327-16.142 13.818-32.851 12.092-46.302-3.726-15.297-18.459-52.915-47.818-39.469-73.729 8.642-15.011 44.28-61.302 62.769-54.302 25.561 12.369 46.188 33.906 64.934 54.885 12.014 12.098 12.321 26.705-.148 38.545zm122.247-189.91c-4.617 20.366-35.498 3.171-31.098-12.786 5.878-18.792 32.162-.273 31.098 12.786z" fill="#d8deec"/></g><g><path d="m507.841 5.714c-23.297-18.253-43.726 8.749-99.141 59.254-48.061 46.936-83.705 63.893-137.657 89.559-73.457 26.033-151.424 97.006-191.293 153.091-54.9 78.56-117.729 136.043-42.666 193.623v-.001c58.582 38.155 116.604-34.275 171.417-75.469 85.494-76.317 162.715-140.724 162.44-238.941 1.189-11.861 2.211-22.106 4.408-28.694 10.599-22.551 89.451-90.52 114.576-119.259 17.558-19.077 22.414-28.065 17.916-33.163zm-66.309 71.698c-3.914-7.425-10.296-13.536-17.862-17.173 5.116-4.913 9.919-9.454 14.417-13.626 8.181 2.84 13.996 10.136 16.383 18.25-4.248 4.146-8.589 8.349-12.938 12.549zm-72.837 78.506c-10.075 46.31-3.31 94.437-43.049 144.14-33.637 43.551-196.907 197.702-243.844 204.913-13.65 2.013-28.176-1.405-40.916-9.622 0-.001 0-.001 0-.001-19.881-12.961-37.302-39.446-30.452-64.947 24.568-61.474 122.693-196.202 206.668-241.66 76.637-39.692 135.768-56.732 201.106-123.232 7.923 3.003 14.588 9.269 18.026 17.017-37.606 36.144-64.387 62.648-67.539 73.392zm113.841-119.389c-6.535 6.984-14.295 14.802-22.579 22.957-2.847-7.75-8.828-14.371-16.222-18.063 30.323-25.388 44.599-41.726 58.643-31.297-.011 1.219-1.446 6.745-19.842 26.403z"/><path d="m47.131 436.759c-9.696 5.188-11.94 22.497-5.618 30.808 16.08 20.796 47.601.061 34.871-22.94-5.605-9.299-20.092-13.198-29.253-7.868zm18.989 30.241c-5.833 3.836-14.843 2.16-18.906-3.515v.001c-3.947-5.1-2.671-17.343 3.445-20.665 15.482-7.372 30.294 13.129 15.461 24.179z"/><path d="m145.635 312.236c-25.814-24.259-56.523 20.36-71.918 38.761-.001 0-.001 0-.001 0-14.464 16.557-12.074 35.915 2.215 52.098 14.54 16.255 32.704 45.993 55.095 49.888 25.673-.531 51.12-31.689 68.525-48.94 13.436-12.961 13.252-29.239.186-42.47-15.784-18.74-33.988-35.339-54.102-49.337zm48.653 87.168c-12.321 13.98-26.171 26.681-41.165 37.748-14.657 12.615-28.907 11.034-41.07-3.322-10.881-10.968-21.162-22.745-30.559-35.002-12.391-14.176-14.722-29.384-2.127-43.678h-.001c13.272-14.812 40.993-58.094 62.262-37.158 19.611 13.646 37.356 29.829 52.746 48.098 10.896 10.948 10.892 22.959-.086 33.314z"/><path d="m120.642 373.485c1.971-4.941 1.56-10.676-.79-15.419 13.931-.298 25.187-20.41 10.066-27.692-12.663-4.946-14.204 8.923-5.873 6.348 11.412-1.063 6.403 16.349-10.716 14.771-3.237-.26-4.997 4.134-2.459 6.169 14.211 14.266-11.847 30.955-18.865 12.094-1.168-4.399-8.064-2.432-6.744 1.921 4.373 16.738 29.325 18.024 35.381 1.808z"/><path d="m156.536 374.371c9.07-14.966-4.916-27.274-18.386-19.267-12.17 6.35-12.608 25.22.952 29.574-8.729 7.117-20.063 11.192-31.217 10.64-17.782 9.728 31.656 13.363 48.651-20.947zm-11.199 3.858c-10.077 2.048-13.078-12.426-3.592-17.103 15.845-6.722 10.559 11.063 3.592 17.103z"/><path d="m139.595 405.974c-3.695-4.142-11.299 7.87-19.725 7.9-4.506.754-3.175 7.794 1.259 6.9 5.347-.959 23.188-7.666 18.466-14.8z"/><path d="m180.314 383.638c-8.081-8.351-16.67-1.094-22.137 5.582-2.276 2.314-5.982 4.649-3.636 8.239 2.7 3.071 8.472 2.383 9.288 7.37 1.958 7.331-6.787 16.435-14.108 16.888-4.075.455-8.226-1.116-10.574-3.997-2.813-3.574-8.37.953-5.435 4.432 16.677 21.116 53.823-12.467 29.557-28.109 7.167-8.391 11.229-10.631 15.975 1.406.751 1.784 2.804 2.622 4.591 1.873 5.185-3.229-.737-10.037-3.521-13.684z"/><path d="m295.01 188.585c-21.014 6.575-4.628 36.772 13.104 36 29.063-3.542 7.881-39.494-13.104-36zm20.534 23.158c-6.196 18.467-36.115-11.518-17.813-16.416 7.383.372 17.574 8.348 17.813 16.416z"/></g></g></svg>